<?xml version="1.0" encoding="UTF-8" standalone="no"?>
<svg
   xmlns:dc="http://purl.org/dc/elements/1.1/"
   xmlns:cc="http://creativecommons.org/ns#"
   xmlns:rdf="http://www.w3.org/1999/02/22-rdf-syntax-ns#"
   xmlns:svg="http://www.w3.org/2000/svg"
   xmlns="http://www.w3.org/2000/svg"
   viewBox="0 0 251.97333 67.32"
   height="67.32"
   width="251.97333"
   xml:space="preserve"
   id="svg2"
   version="1.1"><metadata
     id="metadata8"><rdf:RDF><cc:Work
         rdf:about=""><dc:format>image/svg+xml</dc:format><dc:type
           rdf:resource="http://purl.org/dc/dcmitype/StillImage" /></cc:Work></rdf:RDF></metadata><defs
     id="defs6" /><g
     transform="matrix(1.3333333,0,0,-1.3333333,0,67.32)"
     id="g10"><g
       transform="scale(0.1)"
       id="g12"><path
         id="path14"
         style="fill:#747ac5;fill-opacity:1;fill-rule:nonzero;stroke:none"
         d="M 0,504.934 H 1889.77 V 0 H 0 v 504.934" /><path
         id="path16"
         style="fill:#ffffff;fill-opacity:1;fill-rule:nonzero;stroke:none"
         d="m 154.648,338.801 h 64.36 v -5.227 c -6.235,-0.738 -21.625,-0.738 -21.625,-9.176 0,-3.23 4.961,-14.648 5.469,-16.144 L 246.57,200.488 h 0.5 l 36.028,93.871 c 4.715,12.145 8.215,23.825 8.215,28.817 0,10.152 -15.915,10.152 -22.879,10.398 v 5.227 h 47.699 v -5.227 c -13.914,-0.984 -20.117,-21.351 -24.07,-32.015 L 239.359,163.977 h -4.214 l -54.418,135.578 c -5.461,13.672 -9.696,21.875 -13.672,29.804 -1.961,3.969 -7.696,4.215 -12.407,4.215 v 5.227" /><path
         id="path18"
         style="fill:#ffffff;fill-opacity:1;fill-rule:nonzero;stroke:none"
         d="m 422.969,167.453 v 5.25 c -6.957,0.969 -20.133,0.969 -20.133,10.664 0,6.438 14.43,40.199 16.906,49.156 h 59.395 c 3.218,-10.929 17.129,-42.718 17.129,-49.894 0,-9.926 -13.414,-9.926 -20.875,-9.926 v -5.25 h 64.859 v 5.25 c -13.43,1.965 -16.406,8.656 -21.859,22.817 L 460.23,343.527 c -5.957,-7.214 -11.91,-14.648 -20.125,-19.386 l 4.489,-7.438 -50.688,-132.113 c -2.5,-6.707 -8.711,-11.387 -15.922,-11.887 v -5.25 z m 25.351,142.035 28.086,-70.258 h -53.945 l 25.859,70.258" /><path
         id="path20"
         style="fill:#ffffff;fill-opacity:1;fill-rule:nonzero;stroke:none"
         d="m 628.043,167.453 v 5.25 c 13.66,0 19.598,1.223 19.598,13.879 v 133.09 c 0,12.668 -8.918,13.902 -19.102,13.902 v 5.227 h 67.828 v -5.227 c -16.89,0 -23.609,-4.215 -23.609,-16.375 V 192.277 c 0,-19.074 6.226,-19.574 30.328,-19.574 10.207,0 20.602,0 30.797,1.711 13.172,2.246 20.156,9.941 27.601,20.371 6.469,8.945 12.422,18.36 17.875,28.047 h 5.227 l -14.18,-55.379 H 628.043" /><path
         id="path22"
         style="fill:#ffffff;fill-opacity:1;fill-rule:nonzero;stroke:none"
         d="m 858.945,167.453 v 5.25 c 13.684,0 22.618,1.223 22.618,13.879 v 133.09 c 0,12.668 -8.934,13.902 -22.618,13.902 v 5.227 h 70.801 v -5.227 c -14.148,0 -23.098,-1.234 -23.098,-13.902 v -133.09 c 0,-12.656 8.95,-13.879 23.098,-13.879 v -5.25 h -70.801" /><path
         id="path24"
         style="fill:#ffffff;fill-opacity:1;fill-rule:nonzero;stroke:none"
         d="m 1063.73,167.453 v 5.25 c -6.97,0.969 -20.12,0.969 -20.12,10.664 0,6.438 14.4,40.199 16.85,49.156 h 59.38 c 3.23,-10.929 17.19,-42.718 17.19,-49.894 0,-9.926 -13.44,-9.926 -20.89,-9.926 v -5.25 h 64.85 v 5.25 c -13.4,1.965 -16.4,8.656 -21.86,22.817 l -58.17,148.007 c -5.92,-7.214 -11.9,-14.648 -20.1,-19.406 l 4.48,-7.418 -50.69,-132.113 c -2.49,-6.707 -8.68,-11.387 -15.9,-11.887 v -5.25 z m 25.33,142.035 28.09,-70.258 h -53.91 l 25.82,70.258" /><path
         id="path26"
         style="fill:#ffffff;fill-opacity:1;fill-rule:nonzero;stroke:none"
         d="M 1291.29,311.988 V 186.582 c 0,-8.437 6.19,-13.387 22.83,-13.887 v -5.222 h -51.41 v 5.222 c 11.92,1.231 20.63,1.231 21.59,13.887 0,0 0,0.246 0.24,0.723 v 131.871 c -6.67,7.203 -12.65,14.152 -21.58,14.398 v 5.227 h 37.03 L 1422.96,203.965 V 317.68 c 0,12.668 -6.71,14.425 -21.87,15.894 v 5.227 h 51.2 v -5.227 c -17.15,-2.719 -22.6,-7.429 -22.6,-15.605 V 165.496 h -3.77 l -134.63,146.492" /><path
         id="path28"
         style="fill:#ffffff;fill-opacity:1;fill-rule:nonzero;stroke:none"
         d="m 1610.63,333.574 h -40.75 c -9.19,0 -11.68,-3.719 -17.39,-10.398 -7.45,-8.711 -12.42,-19.141 -20.11,-28.348 l -3.25,1.758 10.42,46.199 c 6.98,-2.019 14.2,-3.984 21.62,-3.984 h 123.77 c 7.44,0 14.64,1.965 21.6,3.984 l 9.16,-46.445 -3.45,-1.746 c -6.22,9.441 -11.21,19.871 -18.64,28.582 -5.72,6.679 -8.19,10.398 -17.38,10.398 h -40.51 v -147 c 0,-10.656 4.94,-13.144 23.11,-13.879 v -5.242 h -70.8 v 5.242 c 17.14,0.735 22.6,3.223 22.6,13.879 v 147" /></g></g></svg>